# xmcd
#
# Track frame offsets:
#	150
#	19295
#	43897
#
# Disc length: 1644 seconds
#
# Revision: 0
# Processed by: cddbd v1.5PL3 Copyright (c) Steve Scherf et al.
# Submitted via: dBpowerAMP V4.0
#
DISCID=22066a03
DTITLE=Chalee Tennison - Easy Lovin' You
DYEAR=1900
DGENRE=Country
TTITLE0=Easy Lovin' You (Album version)
TTITLE1=Lonesome Read (Album version)
TTITLE2=DATA
EXTD=
EXTT0=
EXTT1=
EXTT2=
PLAYORDER=
